<?xml version="1.0" encoding="UTF-8"?>
<!DOCTYPE svg PUBLIC "-//W3C//DTD SVG 1.1//EN" "http://www.w3.org/Graphics/SVG/1.1/DTD/svg11.dtd">
<svg xmlns="http://www.w3.org/2000/svg" version="1.1" width="48px" height="48px" style="shape-rendering:geometricPrecision; text-rendering:geometricPrecision; image-rendering:optimizeQuality; fill-rule:evenodd; clip-rule:evenodd" xmlns:xlink="http://www.w3.org/1999/xlink">
<g><path style="opacity:1" fill="#ff7363" d="M 22.5,-0.5 C 23.8333,-0.5 25.1667,-0.5 26.5,-0.5C 27.9842,1.07365 29.6508,2.40698 31.5,3.5C 28.4041,4.09344 26.0708,3.09344 24.5,0.5C 23.5832,1.12723 22.5832,1.46056 21.5,1.5C 21.8333,0.833333 22.1667,0.166667 22.5,-0.5 Z"/></g>
<g><path style="opacity:1" fill="#ff383b" d="M 21.5,1.5 C 22.436,4.95944 24.436,7.79278 27.5,10C 24.6898,10.7823 22.0232,11.6156 19.5,12.5C 18.9569,12.56 18.6236,12.8933 18.5,13.5C 19.7629,15.0287 20.7629,16.6954 21.5,18.5C 21.5654,18.9382 21.3988,19.2716 21,19.5C 20.1482,18.4293 19.3149,17.4293 18.5,16.5C 17.2869,13.3635 15.7869,10.3635 14,7.5C 11.8215,8.83984 11.3215,8.5065 12.5,6.5C 15.2402,4.4405 18.2402,2.77383 21.5,1.5 Z"/></g>
<g><path style="opacity:1" fill="#ff2e2e" d="M 31.5,3.5 C 33.4341,4.11028 35.1007,5.11028 36.5,6.5C 34.5542,6.19283 32.8875,6.19283 31.5,6.5C 35.1511,10.6516 38.9844,14.6516 43,18.5C 43.4828,19.448 43.6495,20.448 43.5,21.5C 40.5361,19.0381 37.7028,16.3714 35,13.5C 34.0853,14.3279 33.4186,15.3279 33,16.5C 32.5357,15.9056 32.369,15.2389 32.5,14.5C 28.6273,12.5698 24.294,11.9031 19.5,12.5C 22.0232,11.6156 24.6898,10.7823 27.5,10C 24.436,7.79278 22.436,4.95944 21.5,1.5C 22.5832,1.46056 23.5832,1.12723 24.5,0.5C 26.0708,3.09344 28.4041,4.09344 31.5,3.5 Z"/></g>
<g><path style="opacity:1" fill="#ff2b25" d="M 36.5,6.5 C 39.0041,7.58387 41.3374,8.9172 43.5,10.5C 44.4686,18.7483 44.8019,27.0817 44.5,35.5C 43.5139,31.03 43.1805,26.3633 43.5,21.5C 43.6495,20.448 43.4828,19.448 43,18.5C 38.9844,14.6516 35.1511,10.6516 31.5,6.5C 32.8875,6.19283 34.5542,6.19283 36.5,6.5 Z"/></g>
<g><path style="opacity:1" fill="#ff4f53" d="M 12.5,6.5 C 11.3215,8.5065 11.8215,8.83984 14,7.5C 15.7869,10.3635 17.2869,13.3635 18.5,16.5C 17.6236,16.3691 16.9569,16.7025 16.5,17.5C 17.2427,18.1818 17.9094,18.8485 18.5,19.5C 17.5041,19.4142 16.6708,19.7476 16,20.5C 14.6723,23.3118 13.1723,25.9784 11.5,28.5C 10.9569,28.44 10.6236,28.1067 10.5,27.5C 11.1667,26.1667 11.8333,24.8333 12.5,23.5C 10.517,21.0163 8.35036,18.6829 6,16.5C 5.8255,21.3514 5.3255,26.0181 4.5,30.5C 4.20656,23.7446 4.5399,17.0779 5.5,10.5C 7.66256,8.9172 9.99589,7.58387 12.5,6.5 Z"/></g>
<g><path style="opacity:1" fill="#fff3f3" d="M 19.5,12.5 C 24.294,11.9031 28.6273,12.5698 32.5,14.5C 31.3263,15.5137 30.6596,16.847 30.5,18.5C 28.5259,20.428 27.0259,22.7613 26,25.5C 24.4758,23.1019 22.9758,20.7686 21.5,18.5C 20.7629,16.6954 19.7629,15.0287 18.5,13.5C 18.6236,12.8933 18.9569,12.56 19.5,12.5 Z"/></g>
<g><path style="opacity:1" fill="#ff2e33" d="M 43.5,21.5 C 43.1805,26.3633 43.5139,31.03 44.5,35.5C 44.5,35.8333 44.5,36.1667 44.5,36.5C 44.1667,36.5 43.8333,36.5 43.5,36.5C 40.2351,34.2803 36.5685,33.1136 32.5,33C 33.056,32.6174 33.3893,32.1174 33.5,31.5C 36.2469,31.8134 38.9135,31.48 41.5,30.5C 39.2212,26.9392 37.2212,23.2726 35.5,19.5C 34.0813,18.5489 32.4147,18.2155 30.5,18.5C 30.6596,16.847 31.3263,15.5137 32.5,14.5C 32.369,15.2389 32.5357,15.9056 33,16.5C 33.4186,15.3279 34.0853,14.3279 35,13.5C 37.7028,16.3714 40.5361,19.0381 43.5,21.5 Z"/></g>
<g><path style="opacity:0.741" fill="#ff696c" d="M 43.5,10.5 C 44.8255,14.4451 45.4921,18.7784 45.5,23.5C 45.4991,28.0134 45.1657,32.3467 44.5,36.5C 44.5,36.1667 44.5,35.8333 44.5,35.5C 44.8019,27.0817 44.4686,18.7483 43.5,10.5 Z"/></g>
<g><path style="opacity:1" fill="#ff4244" d="M 18.5,16.5 C 19.3149,17.4293 20.1482,18.4293 21,19.5C 21.3988,19.2716 21.5654,18.9382 21.5,18.5C 22.9758,20.7686 24.4758,23.1019 26,25.5C 27.0259,22.7613 28.5259,20.428 30.5,18.5C 32.4147,18.2155 34.0813,18.5489 35.5,19.5C 34.5041,19.4142 33.6708,19.7476 33,20.5C 31.7413,23.3559 30.2413,26.0226 28.5,28.5C 27.7784,28.0825 27.2784,27.4158 27,26.5C 26.2496,27.1258 25.4162,27.6258 24.5,28C 27.1396,30.2034 27.1396,31.0367 24.5,30.5C 22.2336,26.9663 20.2336,23.2996 18.5,19.5C 17.9094,18.8485 17.2427,18.1818 16.5,17.5C 16.9569,16.7025 17.6236,16.3691 18.5,16.5 Z"/></g>
<g><path style="opacity:1" fill="#fff5f5" d="M 18.5,19.5 C 20.2336,23.2996 22.2336,26.9663 24.5,30.5C 22.7354,31.4614 20.7354,31.7947 18.5,31.5C 15.8333,31.5 13.1667,31.5 10.5,31.5C 10.5569,30.391 10.8902,29.391 11.5,28.5C 13.1723,25.9784 14.6723,23.3118 16,20.5C 16.6708,19.7476 17.5041,19.4142 18.5,19.5 Z"/></g>
<g><path style="opacity:1" fill="#fff5f6" d="M 35.5,19.5 C 37.2212,23.2726 39.2212,26.9392 41.5,30.5C 38.9135,31.48 36.2469,31.8134 33.5,31.5C 31.5,31.5 29.5,31.5 27.5,31.5C 27.5569,30.391 27.8902,29.391 28.5,28.5C 30.2413,26.0226 31.7413,23.3559 33,20.5C 33.6708,19.7476 34.5041,19.4142 35.5,19.5 Z"/></g>
<g><path style="opacity:1" fill="#ff656a" d="M 11.5,28.5 C 10.8902,29.391 10.5569,30.391 10.5,31.5C 10.3893,32.1174 10.056,32.6174 9.5,33C 11.751,33.7475 13.0844,35.2475 13.5,37.5C 10.1591,35.479 7.15909,33.1457 4.5,30.5C 5.3255,26.0181 5.8255,21.3514 6,16.5C 8.35036,18.6829 10.517,21.0163 12.5,23.5C 11.8333,24.8333 11.1667,26.1667 10.5,27.5C 10.6236,28.1067 10.9569,28.44 11.5,28.5 Z"/></g>
<g><path style="opacity:0.948" fill="#ff7b7f" d="M 5.5,10.5 C 4.5399,17.0779 4.20656,23.7446 4.5,30.5C 7.15909,33.1457 10.1591,35.479 13.5,37.5C 14.8149,38.4756 16.1482,39.4756 17.5,40.5C 16.7376,40.9106 15.7376,41.0773 14.5,41C 15.056,41.3826 15.3893,41.8826 15.5,42.5C 10.6847,40.5935 6.3514,37.9269 2.5,34.5C 2.79836,26.1487 3.79836,18.1487 5.5,10.5 Z"/></g>
<g><path style="opacity:1" fill="#ff595d" d="M 28.5,28.5 C 27.8902,29.391 27.5569,30.391 27.5,31.5C 26.6971,32.4232 26.5304,33.4232 27,34.5C 29.8635,38.3672 33.6968,40.0338 38.5,39.5C 37.1007,40.8897 35.4341,41.8897 33.5,42.5C 31.8561,42.2865 30.3561,42.6198 29,43.5C 25.5,40.6667 22.3333,37.5 19.5,34C 17.5,33.6667 15.5,33.3333 13.5,33C 15.3817,32.8019 17.0484,32.3019 18.5,31.5C 20.7354,31.7947 22.7354,31.4614 24.5,30.5C 27.1396,31.0367 27.1396,30.2034 24.5,28C 25.4162,27.6258 26.2496,27.1258 27,26.5C 27.2784,27.4158 27.7784,28.0825 28.5,28.5 Z"/></g>
<g><path style="opacity:1" fill="#ff6a6d" d="M 10.5,31.5 C 13.1667,31.5 15.8333,31.5 18.5,31.5C 17.0484,32.3019 15.3817,32.8019 13.5,33C 15.5,33.3333 17.5,33.6667 19.5,34C 22.3333,37.5 25.5,40.6667 29,43.5C 30.3561,42.6198 31.8561,42.2865 33.5,42.5C 30.9906,43.9213 28.6572,45.5879 26.5,47.5C 25.1667,47.5 23.8333,47.5 22.5,47.5C 20.3428,45.5879 18.0094,43.9213 15.5,42.5C 15.3893,41.8826 15.056,41.3826 14.5,41C 15.7376,41.0773 16.7376,40.9106 17.5,40.5C 16.1482,39.4756 14.8149,38.4756 13.5,37.5C 13.0844,35.2475 11.751,33.7475 9.5,33C 10.056,32.6174 10.3893,32.1174 10.5,31.5 Z"/></g>
<g><path style="opacity:1" fill="#ff4e51" d="M 27.5,31.5 C 29.5,31.5 31.5,31.5 33.5,31.5C 33.3893,32.1174 33.056,32.6174 32.5,33C 36.5685,33.1136 40.2351,34.2803 43.5,36.5C 42.3406,38.2503 40.674,39.2503 38.5,39.5C 33.6968,40.0338 29.8635,38.3672 27,34.5C 26.5304,33.4232 26.6971,32.4232 27.5,31.5 Z"/></g>
</svg>
