<?xml version="1.0" encoding="UTF-8"?>
<!DOCTYPE svg PUBLIC "-//W3C//DTD SVG 1.1//EN" "http://www.w3.org/Graphics/SVG/1.1/DTD/svg11.dtd">
<svg xmlns="http://www.w3.org/2000/svg" version="1.1" width="189px" height="189px" style="shape-rendering:geometricPrecision; text-rendering:geometricPrecision; image-rendering:optimizeQuality; fill-rule:evenodd; clip-rule:evenodd" xmlns:xlink="http://www.w3.org/1999/xlink">
<g><path style="opacity:1" fill="#ff262d" d="M 108.5,9.5 C 108.08,11.0936 107.414,12.5936 106.5,14C 128.658,36.6581 150.991,59.1581 173.5,81.5C 174.499,69.8523 174.832,58.1857 174.5,46.5C 175.167,46.5 175.5,46.8333 175.5,47.5C 175.5,68.1667 175.5,88.8333 175.5,109.5C 173.143,109.663 170.81,109.497 168.5,109C 169.833,108.667 171.167,108.333 172.5,108C 169.833,107 167.167,106 164.5,105C 169.833,104.333 169.833,103.667 164.5,103C 165.167,102.667 165.833,102.333 166.5,102C 164.5,101.667 162.5,101.333 160.5,101C 161.833,100.667 163.167,100.333 164.5,100C 161.833,99 159.167,98 156.5,97C 161.833,96.3333 161.833,95.6667 156.5,95C 157.167,94.6667 157.833,94.3333 158.5,94C 156.5,93.6667 154.5,93.3333 152.5,93C 153.833,92.6667 155.167,92.3333 156.5,92C 153.833,91 151.167,90 148.5,89C 153.833,88.3333 153.833,87.6667 148.5,87C 149.167,86.6667 149.833,86.3333 150.5,86C 148.5,85.6667 146.5,85.3333 144.5,85C 145.833,84.6667 147.167,84.3333 148.5,84C 145.833,83 143.167,82 140.5,81C 145.833,80.3333 145.833,79.6667 140.5,79C 141.167,78.6667 141.833,78.3333 142.5,78C 140.5,77.6667 138.5,77.3333 136.5,77C 137.833,76.6667 139.167,76.3333 140.5,76C 137.833,75 135.167,74 132.5,73C 137.833,72.3333 137.833,71.6667 132.5,71C 133.167,70.6667 133.833,70.3333 134.5,70C 132.5,69.6667 130.5,69.3333 128.5,69C 129.833,68.6667 131.167,68.3333 132.5,68C 129.833,67 127.167,66 124.5,65C 129.833,64.3333 129.833,63.6667 124.5,63C 127.167,62.3333 127.167,61.6667 124.5,61C 125.5,60.6667 126.5,60.3333 127.5,60C 126.244,59.5831 125.577,58.7498 125.5,57.5C 126.361,55.6137 127.361,53.7804 128.5,52C 123.177,51.5006 117.844,51.334 112.5,51.5C 111.77,49.955 110.437,49.1216 108.5,49C 109.833,48.6667 111.167,48.3333 112.5,48C 110.155,46.2172 107.488,45.2172 104.5,45C 105.833,44.6667 107.167,44.3333 108.5,44C 105.833,43 103.167,42 100.5,41C 101.833,40.6667 103.167,40.3333 104.5,40C 102.155,38.2172 99.488,37.2172 96.5,37C 97.8333,36.6667 99.1667,36.3333 100.5,36C 97.8333,35 95.1667,34 92.5,33C 93.8333,32.6667 95.1667,32.3333 96.5,32C 94.1547,30.2172 91.488,29.2172 88.5,29C 89.8333,28.6667 91.1667,28.3333 92.5,28C 89.8333,27 87.1667,26 84.5,25C 85.8333,24.6667 87.1667,24.3333 88.5,24C 86.1547,22.2172 83.488,21.2172 80.5,21C 81.8333,20.6667 83.1667,20.3333 84.5,20C 81.8333,19 79.1667,18 76.5,17C 77.8333,16.6667 79.1667,16.3333 80.5,16C 78.2663,14.415 75.933,13.2484 73.5,12.5C 74.8333,11.5 76.1667,10.5 77.5,9.5C 79.674,9.25027 81.3406,8.25027 82.5,6.5C 82.8417,5.66175 83.5084,5.32842 84.5,5.5C 87.6919,3.98623 90.8586,2.31957 94,0.5C 99.0059,3.36315 103.839,6.36315 108.5,9.5 Z"/></g>
<g><path style="opacity:0.168" fill="#ffeeee" d="M 91.5,-0.5 C 92.8333,-0.5 94.1667,-0.5 95.5,-0.5C 100.982,2.07705 105.982,5.41038 110.5,9.5C 109.833,9.5 109.167,9.5 108.5,9.5C 103.839,6.36315 99.0059,3.36315 94,0.5C 90.8586,2.31957 87.6919,3.98623 84.5,5.5C 86.6471,3.26321 88.9804,1.26321 91.5,-0.5 Z"/></g>
<g><path style="opacity:0.165" fill="#ffe3e3" d="M 82.5,6.5 C 81.3406,8.25027 79.674,9.25027 77.5,9.5C 78.4006,7.2729 80.0672,6.2729 82.5,6.5 Z"/></g>
<g><path style="opacity:1" fill="#ff2024" d="M 108.5,9.5 C 109.167,9.5 109.833,9.5 110.5,9.5C 118.832,15.0019 127.499,20.0019 136.5,24.5C 137.899,25.8897 139.566,26.8897 141.5,27.5C 142.492,27.3284 143.158,27.6618 143.5,28.5C 144.899,29.8897 146.566,30.8897 148.5,31.5C 149.492,31.3284 150.158,31.6618 150.5,32.5C 151.659,34.2503 153.326,35.2503 155.5,35.5C 156.899,36.8897 158.566,37.8897 160.5,38.5C 161.492,38.3284 162.158,38.6618 162.5,39.5C 164.336,41.588 166.669,42.9213 169.5,43.5C 170.899,44.8897 172.566,45.8897 174.5,46.5C 174.832,58.1857 174.499,69.8523 173.5,81.5C 150.991,59.1581 128.658,36.6581 106.5,14C 107.414,12.5936 108.08,11.0936 108.5,9.5 Z"/></g>
<g><path style="opacity:0.151" fill="#fff2f2" d="M 77.5,9.5 C 76.1667,10.5 74.8333,11.5 73.5,12.5C 72.609,13.1098 71.609,13.4431 70.5,13.5C 72.0522,10.8881 74.3855,9.55481 77.5,9.5 Z"/></g>
<g><path style="opacity:1" fill="#ff2f35" d="M 73.5,12.5 C 75.933,13.2484 78.2663,14.415 80.5,16C 79.1667,16.3333 77.8333,16.6667 76.5,17C 79.1667,18 81.8333,19 84.5,20C 83.1667,20.3333 81.8333,20.6667 80.5,21C 83.488,21.2172 86.1547,22.2172 88.5,24C 87.1667,24.3333 85.8333,24.6667 84.5,25C 87.1667,26 89.8333,27 92.5,28C 91.1667,28.3333 89.8333,28.6667 88.5,29C 91.488,29.2172 94.1547,30.2172 96.5,32C 95.1667,32.3333 93.8333,32.6667 92.5,33C 95.1667,34 97.8333,35 100.5,36C 99.1667,36.3333 97.8333,36.6667 96.5,37C 99.488,37.2172 102.155,38.2172 104.5,40C 103.167,40.3333 101.833,40.6667 100.5,41C 103.167,42 105.833,43 108.5,44C 107.167,44.3333 105.833,44.6667 104.5,45C 107.488,45.2172 110.155,46.2172 112.5,48C 111.167,48.3333 109.833,48.6667 108.5,49C 110.437,49.1216 111.77,49.955 112.5,51.5C 107.167,51.5 101.833,51.5 96.5,51.5C 96.4226,50.2502 95.756,49.4169 94.5,49C 95.1667,48.6667 95.8333,48.3333 96.5,48C 94.5,47 92.5,46 90.5,45C 91.1667,44.6667 91.8333,44.3333 92.5,44C 90.2262,43.5298 88.2262,42.5298 86.5,41C 87.1667,40.6667 87.8333,40.3333 88.5,40C 86.5,39 84.5,38 82.5,37C 83.1667,36.6667 83.8333,36.3333 84.5,36C 82.2262,35.5298 80.2262,34.5298 78.5,33C 79.1667,32.6667 79.8333,32.3333 80.5,32C 77.1956,29.6425 73.8623,27.3092 70.5,25C 71.1667,24.6667 71.8333,24.3333 72.5,24C 70.5,23 68.5,22 66.5,21C 67.1667,20.6667 67.8333,20.3333 68.5,20C 67.062,19.7811 65.7287,19.2811 64.5,18.5C 64.8627,17.8165 65.1961,17.1499 65.5,16.5C 67.4341,15.8897 69.1007,14.8897 70.5,13.5C 71.609,13.4431 72.609,13.1098 73.5,12.5 Z"/></g>
<g><path style="opacity:0.427" fill="#ffe9e9" d="M 70.5,13.5 C 69.1007,14.8897 67.4341,15.8897 65.5,16.5C 66.4006,14.2729 68.0672,13.2729 70.5,13.5 Z"/></g>
<g><path style="opacity:0.16" fill="#ffefef" d="M 110.5,9.5 C 117.048,12.1073 123.381,15.274 129.5,19C 132.266,20.371 134.599,22.2043 136.5,24.5C 127.499,20.0019 118.832,15.0019 110.5,9.5 Z"/></g>
<g><path style="opacity:0.8" fill="#ffc5c5" d="M 63.5,17.5 C 63.0269,18.9063 62.0269,19.573 60.5,19.5C 60.9731,18.0937 61.9731,17.427 63.5,17.5 Z"/></g>
<g><path style="opacity:1" fill="#ff393f" d="M 65.5,16.5 C 65.1961,17.1499 64.8627,17.8165 64.5,18.5C 65.7287,19.2811 67.062,19.7811 68.5,20C 67.8333,20.3333 67.1667,20.6667 66.5,21C 68.5,22 70.5,23 72.5,24C 71.8333,24.3333 71.1667,24.6667 70.5,25C 73.8623,27.3092 77.1956,29.6425 80.5,32C 79.8333,32.3333 79.1667,32.6667 78.5,33C 80.2262,34.5298 82.2262,35.5298 84.5,36C 83.8333,36.3333 83.1667,36.6667 82.5,37C 84.5,38 86.5,39 88.5,40C 87.8333,40.3333 87.1667,40.6667 86.5,41C 88.2262,42.5298 90.2262,43.5298 92.5,44C 91.8333,44.3333 91.1667,44.6667 90.5,45C 92.5,46 94.5,47 96.5,48C 95.8333,48.3333 95.1667,48.6667 94.5,49C 95.756,49.4169 96.4226,50.2502 96.5,51.5C 87.4355,50.8636 78.7688,51.5302 70.5,53.5C 61.7242,45.892 53.3909,37.7253 45.5,29C 47.1667,28.6667 48.8333,28.3333 50.5,28C 49.944,27.6174 49.6107,27.1174 49.5,26.5C 50.1667,25.8333 50.8333,25.1667 51.5,24.5C 51.8417,23.6618 52.5084,23.3284 53.5,23.5C 55.0269,23.573 56.0269,22.9063 56.5,21.5C 57.5137,20.3263 58.847,19.6596 60.5,19.5C 62.0269,19.573 63.0269,18.9063 63.5,17.5C 63.8417,16.6618 64.5084,16.3284 65.5,16.5 Z"/></g>
<g><path style="opacity:0.004" fill="#fe5358" d="M 41.5,19.5 C 42.8333,20.1667 42.8333,20.1667 41.5,19.5 Z"/></g>
<g><path style="opacity:0.004" fill="#fe6e72" d="M 39.5,20.5 C 40.8333,21.1667 40.8333,21.1667 39.5,20.5 Z"/></g>
<g><path style="opacity:0.004" fill="#fea5a7" d="M 35.5,22.5 C 36.8333,23.1667 36.8333,23.1667 35.5,22.5 Z"/></g>
<g><path style="opacity:0.78" fill="#ffcccd" d="M 56.5,21.5 C 56.0269,22.9063 55.0269,23.573 53.5,23.5C 53.9731,22.0937 54.9731,21.427 56.5,21.5 Z"/></g>
<g><path style="opacity:0.096" fill="#ffeaea" d="M 136.5,24.5 C 138.933,24.2729 140.599,25.2729 141.5,27.5C 139.566,26.8897 137.899,25.8897 136.5,24.5 Z"/></g>
<g><path style="opacity:0.424" fill="#ffe8e8" d="M 51.5,24.5 C 50.8333,25.1667 50.1667,25.8333 49.5,26.5C 48.609,27.1098 47.609,27.4431 46.5,27.5C 47.4006,25.2729 49.0672,24.2729 51.5,24.5 Z"/></g>
<g><path style="opacity:0.086" fill="#ffedee" d="M 143.5,28.5 C 145.933,28.2729 147.599,29.2729 148.5,31.5C 146.566,30.8897 144.899,29.8897 143.5,28.5 Z"/></g>
<g><path style="opacity:0.404" fill="#ffecec" d="M 44.5,28.5 C 43.1007,29.8897 41.4341,30.8897 39.5,31.5C 40.4006,29.2729 42.0672,28.2729 44.5,28.5 Z"/></g>
<g><path style="opacity:0.152" fill="#ffe5e6" d="M 37.5,32.5 C 36.3406,34.2503 34.674,35.2503 32.5,35.5C 33.4006,33.2729 35.0672,32.2729 37.5,32.5 Z"/></g>
<g><path style="opacity:0.163" fill="#ffe5e5" d="M 150.5,32.5 C 152.933,32.2729 154.599,33.2729 155.5,35.5C 153.326,35.2503 151.659,34.2503 150.5,32.5 Z"/></g>
<g><path style="opacity:1" fill="#ff474d" d="M 49.5,26.5 C 49.6107,27.1174 49.944,27.6174 50.5,28C 48.8333,28.3333 47.1667,28.6667 45.5,29C 53.3909,37.7253 61.7242,45.892 70.5,53.5C 80.1447,68.7752 89.3113,84.4418 98,100.5C 98.8928,101.711 99.7261,101.711 100.5,100.5C 102.165,96.8648 104.165,93.5315 106.5,90.5C 109.842,94.1742 113.508,97.5075 117.5,100.5C 113.581,106.67 109.914,113.003 106.5,119.5C 104.916,118.618 103.249,117.785 101.5,117C 101.833,116.667 102.167,116.333 102.5,116C 101.354,115.355 100.354,114.522 99.5,113.5C 98.8333,114.167 98.1667,114.833 97.5,115.5C 96.4063,114.132 96.7397,112.965 98.5,112C 97.0257,110.684 95.359,109.684 93.5,109C 93.8333,108.667 94.1667,108.333 94.5,108C 93.354,107.355 92.354,106.522 91.5,105.5C 90.8333,106.167 90.1667,106.833 89.5,107.5C 88.4063,106.132 88.7397,104.965 90.5,104C 89.0257,102.684 87.359,101.684 85.5,101C 85.8333,100.667 86.1667,100.333 86.5,100C 85.354,99.3551 84.354,98.5217 83.5,97.5C 82.7348,98.6119 81.7348,99.2786 80.5,99.5C 75.6784,91.1941 70.845,82.8608 66,74.5C 65.1482,75.5707 64.3149,76.5707 63.5,77.5C 61.6214,77.6068 61.2881,77.1068 62.5,76C 61.354,75.3551 60.354,74.5217 59.5,73.5C 58.8333,74.1667 58.1667,74.8333 57.5,75.5C 56.4063,74.132 56.7397,72.9653 58.5,72C 57.0257,70.6839 55.359,69.6839 53.5,69C 53.8333,68.6667 54.1667,68.3333 54.5,68C 53.354,67.3551 52.354,66.5217 51.5,65.5C 50.8333,66.1667 50.1667,66.8333 49.5,67.5C 48.4063,66.132 48.7397,64.9653 50.5,64C 49.0257,62.6839 47.359,61.6839 45.5,61C 45.8333,60.6667 46.1667,60.3333 46.5,60C 45.354,59.3551 44.354,58.5217 43.5,57.5C 42.8333,58.1667 42.1667,58.8333 41.5,59.5C 40.4063,58.132 40.7397,56.9653 42.5,56C 41.0257,54.6839 39.359,53.6839 37.5,53C 37.8333,52.6667 38.1667,52.3333 38.5,52C 37.354,51.3551 36.354,50.5217 35.5,49.5C 34.8333,50.1667 34.1667,50.8333 33.5,51.5C 32.4063,50.132 32.7397,48.9653 34.5,48C 33.0257,46.6839 31.359,45.6839 29.5,45C 29.8333,44.6667 30.1667,44.3333 30.5,44C 29.354,43.3551 28.354,42.5217 27.5,41.5C 25.6329,44.2291 24.6329,43.8957 24.5,40.5C 25.1667,40.5 25.5,40.1667 25.5,39.5C 25.8417,38.6618 26.5084,38.3284 27.5,38.5C 29.4341,37.8897 31.1007,36.8897 32.5,35.5C 34.674,35.2503 36.3406,34.2503 37.5,32.5C 37.8417,31.6618 38.5084,31.3284 39.5,31.5C 41.4341,30.8897 43.1007,29.8897 44.5,28.5C 44.8417,27.6618 45.5084,27.3284 46.5,27.5C 47.609,27.4431 48.609,27.1098 49.5,26.5 Z"/></g>
<g><path style="opacity:0.102" fill="#ffe8e8" d="M 155.5,35.5 C 157.933,35.2729 159.599,36.2729 160.5,38.5C 158.566,37.8897 156.899,36.8897 155.5,35.5 Z"/></g>
<g><path style="opacity:0.427" fill="#ffe7e7" d="M 32.5,35.5 C 31.1007,36.8897 29.4341,37.8897 27.5,38.5C 28.4006,36.2729 30.0672,35.2729 32.5,35.5 Z"/></g>
<g><path style="opacity:0.149" fill="#ffecec" d="M 162.5,39.5 C 165.614,39.5548 167.948,40.8881 169.5,43.5C 166.669,42.9213 164.336,41.588 162.5,39.5 Z"/></g>
<g><path style="opacity:0.076" fill="#fff1f1" d="M 25.5,39.5 C 25.5,40.1667 25.1667,40.5 24.5,40.5C 20.9663,42.7664 17.2996,44.7664 13.5,46.5C 15.4006,44.2043 17.7339,42.371 20.5,41C 22.0249,39.9914 23.6916,39.4914 25.5,39.5 Z"/></g>
<g><path style="opacity:0.178" fill="#ffeeee" d="M 169.5,43.5 C 171.933,43.2729 173.599,44.2729 174.5,46.5C 172.566,45.8897 170.899,44.8897 169.5,43.5 Z"/></g>
<g><path style="opacity:0.999" fill="#ff5358" d="M 24.5,40.5 C 24.6329,43.8957 25.6329,44.2291 27.5,41.5C 28.354,42.5217 29.354,43.3551 30.5,44C 30.1667,44.3333 29.8333,44.6667 29.5,45C 31.359,45.6839 33.0257,46.6839 34.5,48C 32.7397,48.9653 32.4063,50.132 33.5,51.5C 34.1667,50.8333 34.8333,50.1667 35.5,49.5C 36.354,50.5217 37.354,51.3551 38.5,52C 38.1667,52.3333 37.8333,52.6667 37.5,53C 39.359,53.6839 41.0257,54.6839 42.5,56C 40.7397,56.9653 40.4063,58.132 41.5,59.5C 42.1667,58.8333 42.8333,58.1667 43.5,57.5C 44.354,58.5217 45.354,59.3551 46.5,60C 46.1667,60.3333 45.8333,60.6667 45.5,61C 47.359,61.6839 49.0257,62.6839 50.5,64C 48.7397,64.9653 48.4063,66.132 49.5,67.5C 50.1667,66.8333 50.8333,66.1667 51.5,65.5C 52.354,66.5217 53.354,67.3551 54.5,68C 54.1667,68.3333 53.8333,68.6667 53.5,69C 55.359,69.6839 57.0257,70.6839 58.5,72C 56.7397,72.9653 56.4063,74.132 57.5,75.5C 58.1667,74.8333 58.8333,74.1667 59.5,73.5C 60.354,74.5217 61.354,75.3551 62.5,76C 61.2881,77.1068 61.6214,77.6068 63.5,77.5C 59.7495,84.6707 55.7495,91.6707 51.5,98.5C 37.8063,86.1396 24.8063,73.1396 12.5,59.5C 12.5,55.5 12.5,51.5 12.5,47.5C 12.5,46.8333 12.8333,46.5 13.5,46.5C 17.2996,44.7664 20.9663,42.7664 24.5,40.5 Z"/></g>
<g><path style="opacity:0.038" fill="#fffdfd" d="M 175.5,47.5 C 176.664,78.9973 176.831,110.664 176,142.5C 174.89,144.037 173.39,144.703 171.5,144.5C 171.833,143.833 172.167,143.167 172.5,142.5C 173.496,142.586 174.329,142.252 175,141.5C 175.5,130.839 175.667,120.172 175.5,109.5C 175.5,88.8333 175.5,68.1667 175.5,47.5 Z"/></g>
<g><path style="opacity:1" fill="#fffdfd" d="M 96.5,51.5 C 101.833,51.5 107.167,51.5 112.5,51.5C 117.844,51.334 123.177,51.5006 128.5,52C 127.361,53.7804 126.361,55.6137 125.5,57.5C 118.917,68.3288 112.584,79.3288 106.5,90.5C 104.165,93.5315 102.165,96.8648 100.5,100.5C 99.7261,101.711 98.8928,101.711 98,100.5C 89.3113,84.4418 80.1447,68.7752 70.5,53.5C 78.7688,51.5302 87.4355,50.8636 96.5,51.5 Z"/></g>
<g><path style="opacity:1" fill="#ff343a" d="M 125.5,57.5 C 125.577,58.7498 126.244,59.5831 127.5,60C 126.5,60.3333 125.5,60.6667 124.5,61C 127.167,61.6667 127.167,62.3333 124.5,63C 129.833,63.6667 129.833,64.3333 124.5,65C 127.167,66 129.833,67 132.5,68C 131.167,68.3333 129.833,68.6667 128.5,69C 130.5,69.3333 132.5,69.6667 134.5,70C 133.833,70.3333 133.167,70.6667 132.5,71C 137.833,71.6667 137.833,72.3333 132.5,73C 135.167,74 137.833,75 140.5,76C 139.167,76.3333 137.833,76.6667 136.5,77C 138.5,77.3333 140.5,77.6667 142.5,78C 141.833,78.3333 141.167,78.6667 140.5,79C 145.833,79.6667 145.833,80.3333 140.5,81C 143.167,82 145.833,83 148.5,84C 147.167,84.3333 145.833,84.6667 144.5,85C 146.5,85.3333 148.5,85.6667 150.5,86C 149.833,86.3333 149.167,86.6667 148.5,87C 153.833,87.6667 153.833,88.3333 148.5,89C 151.167,90 153.833,91 156.5,92C 155.167,92.3333 153.833,92.6667 152.5,93C 154.5,93.3333 156.5,93.6667 158.5,94C 157.833,94.3333 157.167,94.6667 156.5,95C 161.833,95.6667 161.833,96.3333 156.5,97C 159.167,98 161.833,99 164.5,100C 163.167,100.333 161.833,100.667 160.5,101C 162.5,101.333 164.5,101.667 166.5,102C 165.833,102.333 165.167,102.667 164.5,103C 169.833,103.667 169.833,104.333 164.5,105C 167.167,106 169.833,107 172.5,108C 171.167,108.333 169.833,108.667 168.5,109C 170.81,109.497 173.143,109.663 175.5,109.5C 175.667,120.172 175.5,130.839 175,141.5C 174.329,142.252 173.496,142.586 172.5,142.5C 166.807,137.141 161.473,131.474 156.5,125.5C 158.415,125.784 160.081,125.451 161.5,124.5C 152.265,107.698 142.765,91.0314 133,74.5C 127.57,83.029 122.404,91.6957 117.5,100.5C 113.508,97.5075 109.842,94.1742 106.5,90.5C 112.584,79.3288 118.917,68.3288 125.5,57.5 Z"/></g>
<g><path style="opacity:1" fill="#fefcfc" d="M 80.5,99.5 C 85.1667,107.5 89.8333,115.5 94.5,123.5C 75.5,124.833 56.5,124.833 37.5,123.5C 38.5804,121.004 39.9138,118.67 41.5,116.5C 44.8333,110.5 48.1667,104.5 51.5,98.5C 55.7495,91.6707 59.7495,84.6707 63.5,77.5C 64.3149,76.5707 65.1482,75.5707 66,74.5C 70.845,82.8608 75.6784,91.1941 80.5,99.5 Z"/></g>
<g><path style="opacity:1" fill="#fffdfd" d="M 161.5,124.5 C 142.326,124.83 123.326,124.497 104.5,123.5C 104.733,121.938 105.4,120.605 106.5,119.5C 109.914,113.003 113.581,106.67 117.5,100.5C 122.404,91.6957 127.57,83.029 133,74.5C 142.765,91.0314 152.265,107.698 161.5,124.5 Z"/></g>
<g><path style="opacity:0.999" fill="#ff5f64" d="M 12.5,59.5 C 24.8063,73.1396 37.8063,86.1396 51.5,98.5C 48.1667,104.5 44.8333,110.5 41.5,116.5C 31.1396,107.473 21.4729,97.8063 12.5,87.5C 12.5,78.1667 12.5,68.8333 12.5,59.5 Z"/></g>
<g><path style="opacity:0.999" fill="#ff686d" d="M 12.5,87.5 C 21.4729,97.8063 31.1396,107.473 41.5,116.5C 39.9138,118.67 38.5804,121.004 37.5,123.5C 36.9569,123.56 36.6236,123.893 36.5,124.5C 42.1278,125.495 47.7945,125.829 53.5,125.5C 50.7498,127.008 49.9164,129.341 51,132.5C 53.2607,132.805 55.7607,133.472 58.5,134.5C 74.2147,150.215 89.8814,165.881 105.5,181.5C 102.003,184.083 98.3359,186.416 94.5,188.5C 93.5,188.5 92.5,188.5 91.5,188.5C 91.5,188.167 91.5,187.833 91.5,187.5C 90.9939,184.803 89.6606,182.636 87.5,181C 87.8333,180.667 88.1667,180.333 88.5,180C 86.7971,179.255 85.1305,178.421 83.5,177.5C 82.5581,177.608 81.7247,177.941 81,178.5C 80.6667,177.5 80.3333,176.5 80,175.5C 79,175.5 78,175.5 77,175.5C 76,173.5 75,171.5 74,169.5C 73.6667,169.833 73.3333,170.167 73,170.5C 72.6124,168.285 71.6124,166.952 70,166.5C 69.6667,166.833 69.3333,167.167 69,167.5C 68,165.5 67,163.5 66,161.5C 65.6667,161.833 65.3333,162.167 65,162.5C 64.6124,160.285 63.6124,158.952 62,158.5C 61.6667,158.833 61.3333,159.167 61,159.5C 60,157.5 59,155.5 58,153.5C 57.6667,153.833 57.3333,154.167 57,154.5C 56.6124,152.285 55.6124,150.952 54,150.5C 53.6667,150.833 53.3333,151.167 53,151.5C 52,149.5 51,147.5 50,145.5C 49.6667,145.833 49.3333,146.167 49,146.5C 48.6124,144.285 47.6124,142.952 46,142.5C 45.6667,142.833 45.3333,143.167 45,143.5C 44,141.5 43,139.5 42,137.5C 40.9505,138.517 39.7839,138.684 38.5,138C 37.1341,136.4 36.1341,134.567 35.5,132.5C 33.3698,135.277 30.7031,137.444 27.5,139C 29.0349,139.496 30.5349,139.33 32,138.5C 33.8261,139.01 33.9928,139.844 32.5,141C 29.4603,143.155 26.627,142.988 24,140.5C 23.0296,137.556 22.1962,134.556 21.5,131.5C 20.1072,130.137 18.4405,129.304 16.5,129C 17.1667,128.667 17.8333,128.333 18.5,128C 16.6841,126.685 15.0175,125.185 13.5,123.5C 12.501,111.518 12.1677,99.5185 12.5,87.5 Z"/></g>
<g><path style="opacity:0.999" fill="#ff5157" d="M 106.5,119.5 C 105.4,120.605 104.733,121.938 104.5,123.5C 103.957,123.56 103.624,123.893 103.5,124.5C 106.428,125.484 109.428,125.817 112.5,125.5C 112.577,126.75 113.244,127.583 114.5,128C 112.74,128.965 112.406,130.132 113.5,131.5C 114.167,130.833 114.833,130.167 115.5,129.5C 116.354,130.522 117.354,131.355 118.5,132C 118.167,132.333 117.833,132.667 117.5,133C 119.359,133.684 121.026,134.684 122.5,136C 120.74,136.965 120.406,138.132 121.5,139.5C 122.167,138.833 122.833,138.167 123.5,137.5C 124.354,138.522 125.354,139.355 126.5,140C 126.167,140.333 125.833,140.667 125.5,141C 127.359,141.684 129.026,142.684 130.5,144C 128.74,144.965 128.406,146.132 129.5,147.5C 130.167,146.833 130.833,146.167 131.5,145.5C 132.354,146.522 133.354,147.355 134.5,148C 134.167,148.333 133.833,148.667 133.5,149C 135.359,149.684 137.026,150.684 138.5,152C 136.74,152.965 136.406,154.132 137.5,155.5C 138.167,154.833 138.833,154.167 139.5,153.5C 140.354,154.522 141.354,155.355 142.5,156C 142.167,156.333 141.833,156.667 141.5,157C 142.901,157.41 144.234,157.91 145.5,158.5C 145.5,158.833 145.5,159.167 145.5,159.5C 145.158,160.338 144.492,160.672 143.5,160.5C 141.566,161.11 139.899,162.11 138.5,163.5C 138.158,164.338 137.492,164.672 136.5,164.5C 134.566,165.11 132.899,166.11 131.5,167.5C 131.158,168.338 130.492,168.672 129.5,168.5C 127.833,169.167 126.167,169.833 124.5,170.5C 123.391,169.71 122.058,169.21 120.5,169C 121.5,168.667 122.5,168.333 123.5,168C 121.744,167.798 120.078,167.298 118.5,166.5C 116.65,164.482 114.65,162.649 112.5,161C 113.5,160.667 114.5,160.333 115.5,160C 113.744,159.798 112.078,159.298 110.5,158.5C 108.65,156.482 106.65,154.649 104.5,153C 105.5,152.667 106.5,152.333 107.5,152C 105.744,151.798 104.078,151.298 102.5,150.5C 100.65,148.482 98.6499,146.649 96.5,145C 97.5,144.667 98.5,144.333 99.5,144C 97.7444,143.798 96.0777,143.298 94.5,142.5C 92.6499,140.482 90.6499,138.649 88.5,137C 89.5,136.667 90.5,136.333 91.5,136C 89.7444,135.798 88.0777,135.298 86.5,134.5C 84.6499,132.482 82.6499,130.649 80.5,129C 81.5,128.667 82.5,128.333 83.5,128C 81.256,127.95 79.5893,127.117 78.5,125.5C 84.2055,125.829 89.8722,125.495 95.5,124.5C 95.3764,123.893 95.0431,123.56 94.5,123.5C 89.8333,115.5 85.1667,107.5 80.5,99.5C 81.7348,99.2786 82.7348,98.6119 83.5,97.5C 84.354,98.5217 85.354,99.3551 86.5,100C 86.1667,100.333 85.8333,100.667 85.5,101C 87.359,101.684 89.0257,102.684 90.5,104C 88.7397,104.965 88.4063,106.132 89.5,107.5C 90.1667,106.833 90.8333,106.167 91.5,105.5C 92.354,106.522 93.354,107.355 94.5,108C 94.1667,108.333 93.8333,108.667 93.5,109C 95.359,109.684 97.0257,110.684 98.5,112C 96.7397,112.965 96.4063,114.132 97.5,115.5C 98.1667,114.833 98.8333,114.167 99.5,113.5C 100.354,114.522 101.354,115.355 102.5,116C 102.167,116.333 101.833,116.667 101.5,117C 103.249,117.785 104.916,118.618 106.5,119.5 Z"/></g>
<g><path style="opacity:1" fill="#ffa7aa" d="M 37.5,123.5 C 56.5,124.833 75.5,124.833 94.5,123.5C 95.0431,123.56 95.3764,123.893 95.5,124.5C 89.8722,125.495 84.2055,125.829 78.5,125.5C 70.1667,125.5 61.8333,125.5 53.5,125.5C 47.7945,125.829 42.1278,125.495 36.5,124.5C 36.6236,123.893 36.9569,123.56 37.5,123.5 Z"/></g>
<g><path style="opacity:1" fill="#ffa1a4" d="M 104.5,123.5 C 123.326,124.497 142.326,124.83 161.5,124.5C 160.081,125.451 158.415,125.784 156.5,125.5C 141.833,125.5 127.167,125.5 112.5,125.5C 109.428,125.817 106.428,125.484 103.5,124.5C 103.624,123.893 103.957,123.56 104.5,123.5 Z"/></g>
<g><path style="opacity:1" fill="#ff5f64" d="M 53.5,125.5 C 61.8333,125.5 70.1667,125.5 78.5,125.5C 79.5893,127.117 81.256,127.95 83.5,128C 82.5,128.333 81.5,128.667 80.5,129C 82.6499,130.649 84.6499,132.482 86.5,134.5C 88.0777,135.298 89.7444,135.798 91.5,136C 90.5,136.333 89.5,136.667 88.5,137C 90.6499,138.649 92.6499,140.482 94.5,142.5C 96.0777,143.298 97.7444,143.798 99.5,144C 98.5,144.333 97.5,144.667 96.5,145C 98.6499,146.649 100.65,148.482 102.5,150.5C 104.078,151.298 105.744,151.798 107.5,152C 106.5,152.333 105.5,152.667 104.5,153C 106.65,154.649 108.65,156.482 110.5,158.5C 112.078,159.298 113.744,159.798 115.5,160C 114.5,160.333 113.5,160.667 112.5,161C 114.65,162.649 116.65,164.482 118.5,166.5C 120.078,167.298 121.744,167.798 123.5,168C 122.5,168.333 121.5,168.667 120.5,169C 122.058,169.21 123.391,169.71 124.5,170.5C 124.5,170.833 124.5,171.167 124.5,171.5C 122.326,171.75 120.659,172.75 119.5,174.5C 119.158,175.338 118.492,175.672 117.5,175.5C 115.566,176.11 113.899,177.11 112.5,178.5C 112.158,179.338 111.492,179.672 110.5,179.5C 108.833,180.167 107.167,180.833 105.5,181.5C 89.8814,165.881 74.2147,150.215 58.5,134.5C 55.7607,133.472 53.2607,132.805 51,132.5C 49.9164,129.341 50.7498,127.008 53.5,125.5 Z"/></g>
<g><path style="opacity:0.999" fill="#ff444a" d="M 112.5,125.5 C 127.167,125.5 141.833,125.5 156.5,125.5C 161.473,131.474 166.807,137.141 172.5,142.5C 172.167,143.167 171.833,143.833 171.5,144.5C 171.158,145.338 170.492,145.672 169.5,145.5C 167.566,146.11 165.899,147.11 164.5,148.5C 164.158,149.338 163.492,149.672 162.5,149.5C 160.566,150.11 158.899,151.11 157.5,152.5C 157.158,153.338 156.492,153.672 155.5,153.5C 153.566,154.11 151.899,155.11 150.5,156.5C 150.158,157.338 149.492,157.672 148.5,157.5C 147.391,157.557 146.391,157.89 145.5,158.5C 144.234,157.91 142.901,157.41 141.5,157C 141.833,156.667 142.167,156.333 142.5,156C 141.354,155.355 140.354,154.522 139.5,153.5C 138.833,154.167 138.167,154.833 137.5,155.5C 136.406,154.132 136.74,152.965 138.5,152C 137.026,150.684 135.359,149.684 133.5,149C 133.833,148.667 134.167,148.333 134.5,148C 133.354,147.355 132.354,146.522 131.5,145.5C 130.833,146.167 130.167,146.833 129.5,147.5C 128.406,146.132 128.74,144.965 130.5,144C 129.026,142.684 127.359,141.684 125.5,141C 125.833,140.667 126.167,140.333 126.5,140C 125.354,139.355 124.354,138.522 123.5,137.5C 122.833,138.167 122.167,138.833 121.5,139.5C 120.406,138.132 120.74,136.965 122.5,136C 121.026,134.684 119.359,133.684 117.5,133C 117.833,132.667 118.167,132.333 118.5,132C 117.354,131.355 116.354,130.522 115.5,129.5C 114.833,130.167 114.167,130.833 113.5,131.5C 112.406,130.132 112.74,128.965 114.5,128C 113.244,127.583 112.577,126.75 112.5,125.5 Z"/></g>
<g><path style="opacity:0.998" fill="#ff7f81" d="M 12.5,47.5 C 12.5,51.5 12.5,55.5 12.5,59.5C 12.5,68.8333 12.5,78.1667 12.5,87.5C 12.1677,99.5185 12.501,111.518 13.5,123.5C 15.0175,125.185 16.6841,126.685 18.5,128C 17.8333,128.333 17.1667,128.667 16.5,129C 18.4405,129.304 20.1072,130.137 21.5,131.5C 22.1962,134.556 23.0296,137.556 24,140.5C 26.627,142.988 29.4603,143.155 32.5,141C 33.9928,139.844 33.8261,139.01 32,138.5C 30.5349,139.33 29.0349,139.496 27.5,139C 30.7031,137.444 33.3698,135.277 35.5,132.5C 36.1341,134.567 37.1341,136.4 38.5,138C 39.7839,138.684 40.9505,138.517 42,137.5C 43,139.5 44,141.5 45,143.5C 45.3333,143.167 45.6667,142.833 46,142.5C 47.6124,142.952 48.6124,144.285 49,146.5C 49.3333,146.167 49.6667,145.833 50,145.5C 51,147.5 52,149.5 53,151.5C 53.3333,151.167 53.6667,150.833 54,150.5C 55.6124,150.952 56.6124,152.285 57,154.5C 57.3333,154.167 57.6667,153.833 58,153.5C 59,155.5 60,157.5 61,159.5C 61.3333,159.167 61.6667,158.833 62,158.5C 63.6124,158.952 64.6124,160.285 65,162.5C 65.3333,162.167 65.6667,161.833 66,161.5C 67,163.5 68,165.5 69,167.5C 69.3333,167.167 69.6667,166.833 70,166.5C 71.6124,166.952 72.6124,168.285 73,170.5C 73.3333,170.167 73.6667,169.833 74,169.5C 75,171.5 76,173.5 77,175.5C 78,175.5 79,175.5 80,175.5C 80.3333,176.5 80.6667,177.5 81,178.5C 81.7247,177.941 82.5581,177.608 83.5,177.5C 85.1305,178.421 86.7971,179.255 88.5,180C 88.1667,180.333 87.8333,180.667 87.5,181C 89.6606,182.636 90.9939,184.803 91.5,187.5C 90.5084,187.672 89.8417,187.338 89.5,186.5C 88.1007,185.11 86.4341,184.11 84.5,183.5C 80.7485,183.06 77.7485,181.393 75.5,178.5C 74.1007,177.11 72.4341,176.11 70.5,175.5C 68.3374,173.917 66.0041,172.584 63.5,171.5C 62.5707,170.685 61.5707,169.852 60.5,169C 62.9913,168.374 62.9913,167.541 60.5,166.5C 58.2573,165.526 55.924,165.192 53.5,165.5C 49.8876,164.757 46.8876,163.09 44.5,160.5C 43.1007,159.11 41.4341,158.11 39.5,157.5C 38.5084,157.672 37.8417,157.338 37.5,156.5C 36.1007,155.11 34.4341,154.11 32.5,153.5C 31.5084,153.672 30.8417,153.338 30.5,152.5C 29.1007,151.11 27.4341,150.11 25.5,149.5C 24.1007,148.11 22.4341,147.11 20.5,146.5C 17.8588,144.872 15.1921,143.206 12.5,141.5C 11.1667,110.167 11.1667,78.8333 12.5,47.5 Z"/></g>
<g><path style="opacity:0.237" fill="#f8d8d7" d="M 12.5,141.5 C 15.1921,143.206 17.8588,144.872 20.5,146.5C 16.8254,146.5 14.1587,144.833 12.5,141.5 Z"/></g>
<g><path style="opacity:0.055" fill="#fff4f4" d="M 169.5,145.5 C 168.599,147.727 166.933,148.727 164.5,148.5C 165.899,147.11 167.566,146.11 169.5,145.5 Z"/></g>
<g><path style="opacity:0.427" fill="#ffe5e6" d="M 20.5,146.5 C 22.4341,147.11 24.1007,148.11 25.5,149.5C 23.0672,149.727 21.4006,148.727 20.5,146.5 Z"/></g>
<g><path style="opacity:0.384" fill="#ffeded" d="M 25.5,149.5 C 27.4341,150.11 29.1007,151.11 30.5,152.5C 28.0672,152.727 26.4006,151.727 25.5,149.5 Z"/></g>
<g><path style="opacity:0.059" fill="#fff2f3" d="M 162.5,149.5 C 161.599,151.727 159.933,152.727 157.5,152.5C 158.899,151.11 160.566,150.11 162.5,149.5 Z"/></g>
<g><path style="opacity:0.404" fill="#ffeaeb" d="M 32.5,153.5 C 34.4341,154.11 36.1007,155.11 37.5,156.5C 35.0672,156.727 33.4006,155.727 32.5,153.5 Z"/></g>
<g><path style="opacity:0.059" fill="#fff1f1" d="M 155.5,153.5 C 154.599,155.727 152.933,156.727 150.5,156.5C 151.899,155.11 153.566,154.11 155.5,153.5 Z"/></g>
<g><path style="opacity:0.431" fill="#ffe7e7" d="M 39.5,157.5 C 41.4341,158.11 43.1007,159.11 44.5,160.5C 42.0672,160.727 40.4006,159.727 39.5,157.5 Z"/></g>
<g><path style="opacity:0.071" fill="#ffeded" d="M 148.5,157.5 C 148.027,158.906 147.027,159.573 145.5,159.5C 145.5,159.167 145.5,158.833 145.5,158.5C 146.391,157.89 147.391,157.557 148.5,157.5 Z"/></g>
<g><path style="opacity:0.051" fill="#fff4f4" d="M 143.5,160.5 C 142.599,162.727 140.933,163.727 138.5,163.5C 139.899,162.11 141.566,161.11 143.5,160.5 Z"/></g>
<g><path style="opacity:0.988" fill="#ffa4a4" d="M 53.5,165.5 C 55.924,165.192 58.2573,165.526 60.5,166.5C 62.9913,167.541 62.9913,168.374 60.5,169C 61.5707,169.852 62.5707,170.685 63.5,171.5C 62.448,171.649 61.448,171.483 60.5,171C 58.0975,169.147 55.7641,167.314 53.5,165.5 Z"/></g>
<g><path style="opacity:0.055" fill="#fff3f3" d="M 136.5,164.5 C 135.599,166.727 133.933,167.727 131.5,167.5C 132.899,166.11 134.566,165.11 136.5,164.5 Z"/></g>
<g><path style="opacity:0.059" fill="#fff1f2" d="M 129.5,168.5 C 128.599,170.727 126.933,171.727 124.5,171.5C 124.5,171.167 124.5,170.833 124.5,170.5C 126.167,169.833 127.833,169.167 129.5,168.5 Z"/></g>
<g><path style="opacity:0.084" fill="#ffeaea" d="M 124.5,171.5 C 123.599,173.727 121.933,174.727 119.5,174.5C 120.659,172.75 122.326,171.75 124.5,171.5 Z"/></g>
<g><path style="opacity:0.047" fill="#fff2f2" d="M 63.5,171.5 C 66.0041,172.584 68.3374,173.917 70.5,175.5C 67.3855,175.445 65.0522,174.112 63.5,171.5 Z"/></g>
<g><path style="opacity:0.231" fill="#ffeded" d="M 70.5,175.5 C 72.4341,176.11 74.1007,177.11 75.5,178.5C 73.0672,178.727 71.4006,177.727 70.5,175.5 Z"/></g>
<g><path style="opacity:0.047" fill="#fff5f5" d="M 117.5,175.5 C 116.599,177.727 114.933,178.727 112.5,178.5C 113.899,177.11 115.566,176.11 117.5,175.5 Z"/></g>
<g><path style="opacity:0.076" fill="#fff1f1" d="M 110.5,179.5 C 106.442,182.89 102.109,185.89 97.5,188.5C 96.5,188.5 95.5,188.5 94.5,188.5C 98.3359,186.416 102.003,184.083 105.5,181.5C 107.167,180.833 108.833,180.167 110.5,179.5 Z"/></g>
<g><path style="opacity:0.243" fill="#ffe7e7" d="M 84.5,183.5 C 86.4341,184.11 88.1007,185.11 89.5,186.5C 87.0672,186.727 85.4006,185.727 84.5,183.5 Z"/></g>
</svg>
